# xmcd
#
# Track frame offsets: 
#        150
#        21034
#        42184
#        66428
#        85365
#        109121
#        134584
#        155528
#        175459
#        195915
#        215809
#        237821
#        259909
#        287884
#
# Disc length: 4115 seconds
#
# Revision: 0
# Processed by: cddbd v1.5.2PL0 Copyright (c) Steve Scherf et al.
# Submitted via: ExactAudioCopyFreeDBPlugin 1.0
#
DISCID=d110110e
DTITLE=Arika Kane - Substance
DYEAR=2012
DGENRE=Pop
TTITLE0=Fight 4 Ur Life
TTITLE1=Just a Plus
TTITLE2=Feel It Too
TTITLE3=Ease Ur Pain
TTITLE4=Bcuz Ur Lonely
TTITLE5=Let Go
TTITLE6=Waiting
TTITLE7=Soul on Fire
TTITLE8=Be Ur Woman
TTITLE9=Not Givin'
TTITLE10=No More
TTITLE11=Be With Me
TTITLE12=Let Go (Clue Ext. Mix) (feat. ProPain)
TTITLE13=Fight 4 Ur Life (Hip Hop Mix) (feat. ProPain))
EXTD=
EXTT0=
EXTT1=
EXTT2=
EXTT3=
EXTT4=
EXTT5=
EXTT6=
EXTT7=
EXTT8=
EXTT9=
EXTT10=
EXTT11=
EXTT12=
EXTT13=
PLAYORDER=
